<?xml version="1.0" encoding="utf-8"?>
<!-- Generator: Adobe Illustrator 19.0.0, SVG Export Plug-In . SVG Version: 6.00 Build 0)  -->
<svg version="1.1" id="Layer_1" xmlns="http://www.w3.org/2000/svg" xmlns:xlink="http://www.w3.org/1999/xlink" x="0px" y="0px"
	 viewBox="-684 266 550 550" style="enable-background:new -684 266 550 550;" xml:space="preserve">
<style type="text/css">
	.st0{fill:#FCEBB7;}
	.st1{fill:#D2C98B;}
	.st2{fill:#2C2E0F;}
</style>
<g id="XMLID_348_">
	<g id="XMLID_441_">
		<path id="XMLID_443_" class="st0" d="M-325.6,452.6c6.5,3.1,3.9,15,3.4,21.5c-3.9-1.3-4.2-6.1-4.3-11.2c-0.5-3.2-4-3.5-4.3-6.9
			C-328.4,455.6-328.6,452.5-325.6,452.6z"/>
		<path id="XMLID_442_" class="st0" d="M-457.6,735.8c-38.8-0.3-77.8-0.7-117-0.6c-1.4-1.5-2.5-18.6,1.7-62.9
			c-0.1-10.5,10.6-26.9,19-31c16.3-8,41.3-21,58.6-27.6c7.4-2.8,16.5-3.5,22.4-6.9c6.8-3.9,10.3-11.8,16.4-14.6
			c1.6-6.7,6.3-10.4,8.6-16.4c-6.4-17.5-19.7-27.1-25-45.7c-1.6-5.5-1.6-10.8-3.4-14.6c-4.9-2.9-7.6-7.9-10.3-12.9
			c1.4-0.2,1.5,0.8,2.6,0.9c-2.6-15.2-16.6-28.9-8.6-46.5c2.5,0.2,2.6-1.9,5.2-1.7c-3.7-16.9-13-28.7-11.3-46.3
			c0.5-4.7,3.5-9.6,6-15.5c2.1-5,3.6-10.9,6-14.6c1.8-2.7,5.2-5.3,7.8-8.6c8.1-10.6,13.2-17.9,28.4-23.3c1.7-0.6,3.9-0.2,6-0.9
			c5.6-1.6,12-5,16.4-5.2c4.8-0.2,5.1-0.5,9.6-1.1c4.4-0.5,6.5-1.9,14.5-1.2c6.1,0.5,12.4,2.9,19,3.4c6.9,0.6,13.7-1.3,18.1,0.9
			c7.3,3.6,20.3,13.5,25.8,20.7c3.5,4.6,4.5,10.3,6.9,15.5c1.8,4,5.8,10.7,6,16.4c8.1,12.5,9.9,33.8,5.4,51.2
			c7.2,5,7.3,19.4,3.3,39.5c1.1,13.5-9.5,25.1-23.1,25.1l0,0c-1,5.4-1.9,11.7-1.7,19c-0.7-0.2-0.9-0.9-1.7-0.9
			c0.7,3.5-0.6,10.3-3.4,12.9c-1,8-3.3,14.2-7.8,19.8c-1.3,1.6-4.1,2.9-5.2,4.3c-0.7,0.9-0.1,2.6-0.9,3.4c-1.6,1.8-4.4,2.6-6,4.3
			c-13.9,14.1-29.6,29.3-45.7,39.6c-5,0.7-6.2-2.4-11.2-1.7c-1.1,2-0.4,5.8,1.7,8.6c4.6,0.3,6-1.5,8.6,0.9
			c7.7-7.2,17.9-11.9,25.8-19c3.2,0.6,6.1,1.4,8.6,2.6c-0.7,1.9-0.6,4.5-2.6,6.9c-0.1,14.3-9.8,23.4-8.6,36.2
			c6.3-3.2,8.6-11.3,12.1-18.1c6.5-12.6,13.9-26.3,21.5-38.8c5.9-9.8,13.7-18.5,17.2-30.2c2-6.5-1.1-11.9-2.6-18.1
			c9,1.8,12,11.3,18.1,16.4c7.4,6.1,15.9,10.1,23.3,16.4l54.3,37.9c0,0,28.9,85.7-27.6,121.5c-49.1,1.3-97.8,1.2-146.5,0.9l0.1-1.7
			c6.3-28.4,20.1-49.4,27.6-76.7c-6.7,2.5-12.1,0-18.1,3.4c-3-3.9-4.1-9.7-7.8-12.9c-2.2-2.7-5.4,0.9-7.8,0.9
			c-7.1,10.6-21,17.5-19.8,33.6c-2,1.2-3.2,3.1-4.3,5.2c-1.9,10,0.5,21.8-0.9,31.9c-0.8,6.1-5,10.9-3.4,15.5L-457.6,735.8z"/>
	</g>
	<g id="XMLID_424_">
		<path id="XMLID_440_" class="st1" d="M-326.6,451c6.5,3.1,3.9,15,3.4,21.5c-3.9-1.3-4.2-6.1-4.3-11.2c-0.5-3.2-4-3.5-4.3-6.9
			C-329.5,453.9-329.6,450.9-326.6,451z"/>
		<path id="XMLID_439_" class="st1" d="M-338.7,463.1c6,3.8,9.3,11.5,6,18.1c-2.6-1.4-3.1-4.9-6.9-5.2c-4.4,3.6-0.9,6.1-2.6,11.2
			c-2.7,1-2.8-7.1-1.7-11.2c0.2-0.9,1.6-0.5,1.7-3.4c0-0.7-1.7-0.8-1.7-0.9c0.2-1.7,4.1-3.4,0.9-3.4C-343,465.1-340,465-338.7,463.1
			z"/>
		<path id="XMLID_438_" class="st1" d="M-388.6,479.5c2-2.5,4.9,0.9,6.9-0.9C-381.6,482.3-387.2,479.6-388.6,479.5z"/>
		<path id="XMLID_437_" class="st1" d="M-342.1,488.1c-1.3,3.9-0.3,5.4,1.7,7.8c-2.3,1.3-3.3-1.8-4.3-6
			C-344.4,487.7-344.3,488.2-342.1,488.1z"/>
		<path id="XMLID_431_" class="st1" d="M-436.9,495.8c0.2-2-0.2-3.2-1.7-3.4C-438.4,493.9-439.5,496.7-436.9,495.8z M-415.4,520.8
			c-1.6,0.8-2.9-2.6-3.4,0C-418.3,521.1-415.5,522.9-415.4,520.8z M-380,533.7C-383.5,530.7-382.1,536.5-380,533.7L-380,533.7z
			 M-403.3,561.3c4.9-1,5.9-1.6,8.6-3.4c-2.9,2,0.6-2.3,1.7-1.7c-6.3-4-15.2-3.9-21.5,0c2.1,0.8,10.7,6.5,6.9,2.6
			C-404.1,559-398.3,559.6-403.3,561.3z M-424,732.7c6.3-28.4,20.5-46.9,28-74.2c-6.7,2.5-12.1,0-18.1,3.4c-3-3.9-4.1-9.2-7.8-12.4
			c-2.2-2.7-5.4,0.9-7.8,0.9c-7.1,10.6-19.7,14.9-18.5,31c-2,1.2-3.2,3.1-4.3,5.2c-1.9,10,0.5,21.8-0.9,31.9
			c-0.8,6.1-2.9,16-5.2,15.2l-0.2,0.6c-38.8-0.3-77.7-0.7-116.9-0.6c-1.4-1.5-1.9-3.9-3.4-5.2c0.9-1.6-2.9-13.8-1.7-27.6
			c-1-12.4,6.4-23.4,6.9-30.2c-0.1-10.5,10.6-26.9,19-31c16.3-8,41.3-21,58.6-27.6c7.4-2.8,16.5-3.5,22.4-6.9
			c6.8-3.9,10.3-11.8,16.4-14.6c1.6-6.7,6.3-10.4,8.6-16.4c-6.4-17.5-19.7-27.1-25-45.7c-1.6-5.5-1.6-10.8-3.4-14.6
			c-9.7-3.8-24.3-41-16.4-58.6c2.5,0.2,2.6-1.9,5.2-1.7c-3.7-16.9-12-26.9-10.3-44.5c0.5-4.7,3.5-9.6,6-15.5c2.1-5,3.6-10.9,6-14.6
			c1.8-2.7,5.2-5.3,7.8-8.6c8.1-10.6,13.2-17.9,28.4-23.3c1.7-0.6,3.9-0.2,6-0.9c5.6-1.6,12-5,16.4-5.2c4.8-0.2,0.4,2.3,4.9,1.7
			c4.4-0.5,11-2.4,19-1.7c6.1,0.5,12.4,2.9,19,3.4c6.9,0.6,13.7-1.3,18.1,0.9c7.3,3.6,20.3,13.5,25.8,20.7
			c3.5,4.6,4.5,10.3,6.9,15.5c1.8,4,5.8,10.7,6,16.4c8.1,12.5,13.8,34.4,4.6,47c-10,0.4-11.1,9.6-17.2,13.8
			c-0.9-2.2-1.2-4.3-4.3-6.9c2.5-2.5-5.2-20.8-9.5-25c1.5-6.9-2.9-26.4-4.3-28.4c-1.7-2.3-11.9-7.6-14.6-9.5
			c-11.2,0.6-20.2-0.4-31,0c-7.7,0.3-17.2,3.3-25,3.4c-4.1,0.1-8.4-1.5-10.3,2.6c-5.1-3.6-12,1.9-13.8,6.9c0.8,27.6,27.3,37.4,31,37
			c1.5,3.2,0.8,6.1,0.9,11.2c0.1,2.6,1.5,4.8,1.7,7.8c0.5,6.4-0.3,15.3-0.9,22.4c-0.2,3.1-2,8.2-1.7,11.2c0.1,1.2,1.2,0.2,1.7,0.9
			c0.7,1-0.6,4-0.9,3.4c1.2,2.1,4.2,4,6,4.3c6.1-3.1,14.6-2.3,19.8-4.3c-2.2,7.6-4.4,14.2-12.1,15.5c0,3.5-1.3,5.5-3.4,6.9
			c2.2,1.5,0.6,1.4,1.7,3.4c3.4-2.1,2.8,0,9.5,0.9c4.4,0.6,2.6,0.5,5.2-1.7c0.3-0.2,1.4,1.3,1.7,0.9c0.2-0.2-0.2-1.7,0-1.7
			c5.7-2,9.9,5.9,11.2,2.6c9.8,20.3,28.9-2.3,32.7,0c-3.3-5.7,3.3-10.9,3.4-17.2c3-0.2,0.4,7,3.7,6c-1,5.4-1.9,8.6-1.7,15.9
			c-4.2,28.7-19.7,42.8-20.5,43.6c-1.6,1.8-4.4,2.6-6,4.3c-13.9,14.1-28.1,28.3-44.2,38.6c-5,0.7-12.7,2.4-10.6,5.2
			c4.6,0.3,6-1.5,8.6,0.9c7.7-7.2,17.9-11.9,25.8-19c3.2,0.6,8.5,3,11,4.2c-0.7,1.9-0.6,4.5-2.6,6.9c-0.1,14.3-11.2,21.2-10,34
			c6.3-3.2,7.6-10.7,11.1-17.5c6.5-12.6,13.9-26.3,21.5-38.8c5.9-9.8,13.7-18.5,17.2-30.2c2-6.5-1.1-11.9-2.6-18.1
			c9,1.8,12,11.3,18.1,16.4c7.4,6.1,15.9,10.1,23.3,16.4l54.3,37.9c0,0,30.3,80.9-27.6,121.5c-49,1.3-97.7,1.2-146.3,0.9
			C-423.8,734.5-424,732.7-424,732.7z"/>
		<path id="XMLID_427_" class="st1" d="M-359.4,442.4c1.9,0.5-0.3,1.8,0,2.6c0.5,1.3,1.8,0,2.6,0.9c-0.5-0.5,2.5,12.1-3.4,11.2
			c0,8.1-15.2,5.4-15.5,10.3c-1.5,1.4-3.1,2.6-6,2.6c-0.6,2.7-0.6,1.7,0,4.3c-1.7,0-3.4,0-5.2,0c0.8,0.9,1.7,1.7,2.6,2.6
			c0,1.3-4.1-0.4-5.2-0.9c-2.1-0.3,0.5,3.9-2.6,2.6c0.1-2.4-1.4-1.7,0-3.4c-1.5-0.3-1.6,0.7-1.7,1.7c-3.2-2.8-7.6-4.5-8.6-9.5
			c-14,0.4-2.9-17.6-12.1-21.5c2.2-5.2,1-12.4,10.3-12.1c1.3,0.1,2.5,1.4,4.3,1.7c9.5,1.4,18.2-2.4,26.7,0c0.2,0.6-0.4,0.9-0.9,0.9
			c4.3,0.7,10.1,3.7,12.9,7.8C-359.6,444.4-359.5,443.5-359.4,442.4z M-368.8,447.6c-2.6-0.6,0.8-1.8,0-3.4
			c-5.2-1.3-12.8-4.7-14.6,1.7c1.6,0.7,3.2,1.4,5.2,1.7C-377.6,443.1-369.6,449.4-368.8,447.6z M-380.9,461.4
			c1.5,0.8,1.4,3.2,3.4,3.4c-1.5-3.2,0.2-1.7,1.7-3.4c-1.9-0.5,1-1.3-0.9-2.6C-378.6,459.1-380.3,459.7-380.9,461.4z"/>
		<path id="XMLID_426_" class="st1" d="M-400.7,486.3c1.3,0.4-0.1,0.8,0,1.7c0.6,0.9,2,0.9,1.7,2.6c-0.7,0.2-0.8-0.3-0.9-0.9
			c-0.8,0-0.7,1.1-0.9,1.7C-401.8,492.8-402.9,486.9-400.7,486.3z"/>
		<path id="XMLID_425_" class="st1" d="M-341.3,497.5c-2.3,6.5,2.6,5.1,4.3,8.6c-1.6,1.1-4.4-0.8-6.9,0.9
			C-345.3,504.5-343,498.4-341.3,497.5z"/>
	</g>
	<g id="XMLID_415_">
		<path id="XMLID_423_" class="st2" d="M-322.3,443.5c2.8,0.6,4.7-27.3,4.7-27.3c-5.6-15.3-10.8-28.5-22.4-52
			c-4.9-10.1-15.8-18.5-27.9-23.4c-21.1-0.5-32.2-4-50.1-3.7c0,0,0.9,5.7-14.2,2.1c0,0-32.2,7.9-35.2,17c0,0-15.1,13.3-21.3,25.3
			c0,0-7,7.7-7.4,15.9c-0.5,8.2-8.6,12.9-2.6,25.5c0,0,5.6,25.4,10.1,29.7c0,0,5-15.5,12.1-20.6c0,0-6.4-16.4-1.6-22.4
			c0,0-5.4-13.4,32.7-21.3c0,0,13.8,1.8,22.9-2.5c0,0,0.4-3.8,9.1,0c0,0,2.2-3.3,9.1,0c0,0,18.9,2.5,19.5-3.5c0,0,3,1.6,5,1.3
			c2-0.3,12.9,1.5,13.9-3.3c0,0,1.6,3.3,0.8,4.3c-0.7,1,16.7,11.6,19.6,21.7c2.9,10.1-3.1,21.3-2.8,22.7c0.3,1.4,9,17.1,8.4,21.3
			c0,0,2.7,0.3,7.1-6.8C-332.8,443.5-328.9,445.4-322.3,443.5z"/>
		<path id="XMLID_422_" class="st2" d="M-475,459.6c5.6-6.7,1.8-11.2,1.8-11.2c5.2-5.6,12.1-6.8,12.1-6.8c6.2,0.9,25,0.2,25,0.2
			c13.3,4.6,11,20.8,11,20.8s-1.3,6.2-3.5,6c0,0,3.1-7.2-3.4-8.6c0,0-1.3,2.3-2.6,2.5c0,0-5.3-6.2-7.7-6.1c0,0,0-7.1-5.9-8
			s-12.4-1-14.9-3.3c0,0-5.8,2.9-0.7,3.4c0,0-2.6,3.9-5.2,6.9c0,0,3.8-0.6,5.2,0c0,0,1.1-1.1,13.8-1.6c0,0,0.5,5.4,6,5.2
			c0,0,0.5,9-10.4,3.4c0,0,3.8-2.9-0.8-2.6c0,0-0.1,1.9-4.3,3.7c0,0-0.7,4.6,6.8,6.7c0,0-9.2,5.4-14.6-4.4c0,0-2.5,0.6-4.3-0.9
			c0,0,1.9-4.3-2.6-5L-475,459.6z"/>
		<path id="XMLID_421_" class="st2" d="M-485.6,460.4l0.9-6.7c0,0-6.6-1.1-9.2,6.4c-2.6,7.5,1.5,14,1.5,14s6.8-8.2-0.1-12.8
			c0,0,1-4.3,2.8-4.3C-487.9,457-488.4,461.8-485.6,460.4z"/>
		<path id="XMLID_420_" class="st2" d="M-390,441c0,0-13.1-6.8-16.3,7.1c0,0,3,0.1,3.8,1c0.8,0.8-0.6,3.7,1.5,4.3s-0.5-4.1,2.3-4.3
			c2.8-0.2,5.2-1.1,6.6-4.7C-390.5,440.7-390,441-390,441z"/>
		<path id="XMLID_419_" class="st2" d="M-433.6,496.4c0,0,2.4,6.7,18,10.1c0,0,7.7-4.5,11.6-3.2c0,0-0.3,2.8-6.1,4.6
			c-5.8,1.8-5,6.3-5,6.3s-9.5,3.2-13.7,7.6c0,0-3.4-0.9-6.9-0.6c0,0,2.3-4.2-2-8.2C-437.8,512.9-439.1,506.2-433.6,496.4z"/>
		<path id="XMLID_418_" class="st2" d="M-387.7,529.2c0,0-33.8-2.2-44.5-6.3c0,0-5.5,4.8-16.6,6.8c0,0-0.5,6.4,3.4,9.5
			c0,0-2.7,2,0,2.5c0,0-2.9,3.3-7.4-0.8s-6.2,0.2-6.2,0.2s-0.4-3-0.2-4.4c0,0-6.5-0.9-10.4,2.2c0,0,6.2,13.4,8.8,15.5
			c2.6,2.1,9.8,14.3,12.3,20.9c-1,7-2.9,7.5,0.3,14.2c3.2,6.7,12.3,18.6,30,22.5c0,0,33-20.5,31-35.2s-22.4,10-51.6-16
			c0,0-0.1-8.8,18.3-5.7c0,0,1-1.7,5.5-2.5s14-0.2,17.9-5.9c0,0-1.6,0.6-3-0.7s-1.5-3.5-16.8-2.1c0,0-5.2,0.1-7.6-2
			c-2.3-2.2-2.7-2.6-4.1-2.5c-1.4,0.2,7.2-4,15.6-4.2c8.5-0.2,18.6-4.1,18.6-4.1S-390.3,535.3-387.7,529.2z"/>
		<path id="XMLID_417_" class="st2" d="M-390.3,603.5c0,0-12.2,3.7-27,17.9l-4.6-0.3c0,0-2,3.2-1.8,7c0,0-4.9,1.1-4.7-7.8
			c0,0-7.6-13.4-10.8-13.8c-3.2-0.4-4.1-0.4-5.3,0.1l0.3-2.6c0,0-7.4,0.8-7.5-9.9c0-10.6,0.6-12.9,0.6-12.9s-5.2,0.4-7.7,9.4
			l-5.8,4.6c0,0-7.9,7.7-11.7,8.3c-3.8,0.6-15,4.6-16.5,6.6c0,0-10,3-41.9,19.3s-33.9,18.6-33.9,18.6s-23,69-10.8,85
			s55.7,14.9,123.5,3.3c0,0,9.2-54.1,11.9-62.3c0,0-1.1-11.5-1.6-14.1c0,0-10.2,4.9-16.5,2.3c0,0-4.5-14.1,0.4-25
			c0,0,18.9-3.3,22.4,1.9c0,0-5.5,3.9,0.9,13.8c0,0,2.6-1.9,2.4-5.4c0,0,8.2-4.4,15.5-2.8c0,0,5.2,14.7,13.4,9.6
			c0,0,2.7,2.7,4.7,1.9C-402.5,656-387.7,626-390.3,603.5z"/>
		<path id="XMLID_416_" class="st2" d="M-346.5,540.4c0,0,9.9,17.7-9.3,39.9c-39.9,46.1-72.2,156.6-72.2,156.6s40.1-1.1,78.3,0
			c111.7,3.3,134.6-2.5,99.9-125.1c0,0-37-25.7-54.3-37.9c-17.9-12.6-30.2-24.4-32.8-28.8C-339.5,540.8-346.5,540.4-346.5,540.4z"/>
	</g>
</g>
</svg>
