<?xml version="1.0" encoding="utf-8"?>
<!-- Generator: Adobe Illustrator 19.0.0, SVG Export Plug-In . SVG Version: 6.00 Build 0)  -->
<svg version="1.1" id="Layer_1" xmlns="http://www.w3.org/2000/svg" xmlns:xlink="http://www.w3.org/1999/xlink" x="0px" y="0px"
	 viewBox="-149 151 250 250" style="enable-background:new -149 151 250 250;" xml:space="preserve">
<style type="text/css">
	.st0{fill:none;}
	.st1{fill:none;stroke:#D2C98B;stroke-miterlimit:10;}
	.st2{fill:#D2C98B;}
	.st3{fill:#2C2E0F;}
	.st4{opacity:0.1;fill:url(#SVGID_2_);}
</style>
<pattern  x="-149" y="401" width="42.6" height="42.6" patternUnits="userSpaceOnUse" id="SVGID_1_" viewBox="0 -42.6 42.6 42.6" style="overflow:visible;">
	<g>
		<polygon class="st0" points="0,0 42.6,0 42.6,-42.6 0,-42.6 		"/>
		<g id="XMLID_10_">
			<polygon id="XMLID_18_" class="st0" points="0,0 42.6,0 42.6,-42.6 0,-42.6 			"/>
			<path id="XMLID_17_" class="st1" d="M28.6-21.4c0.2-0.7,1.9-4.6,0.2-7.5c-1.7-2.9-7.1-4.2-7.5-5.1l0,0c-0.5,1-5.8,2.2-7.5,5.1
				s0,6.8,0.2,7.5s-1.4,7.3-1.4,7.3s3-1.1,4.5-1.2s4.2,1.2,4.2,1.2l0,0c0,0,2.7-1.3,4.2-1.2c1.5,0.1,4.5,1.2,4.5,1.2
				S28.4-20.7,28.6-21.4z M26.7-23.2c0,0.2-0.1,0.3-0.3,0.3h-4.8v5.4c0,0.2-0.1,0.3-0.3,0.3c-0.2,0-0.3-0.1-0.3-0.3v-5.4h-4.8
				c-0.2,0-0.3-0.1-0.3-0.3c0-0.2,0.1-0.3,0.3-0.3H21v-7c0-0.2,0.1-0.3,0.3-0.3c0.2,0,0.3,0.1,0.3,0.3v7h4.8
				C26.6-23.5,26.7-23.4,26.7-23.2z"/>
			<g id="XMLID_12_">
				<path id="XMLID_16_" class="st2" d="M0.7-42.4c-0.1,0-0.3,0-0.4,0.1c-0.2,0.2-0.2,0.5,0,0.7l9.6,9.8c0.2,0.2,0.5,0.2,0.7,0
					c0.2-0.2,0.2-0.5,0-0.7L1-42.3C0.9-42.4,0.8-42.4,0.7-42.4z"/>
				<path id="XMLID_15_" class="st2" d="M32.3-10.8c-0.1,0-0.3,0-0.4,0.1c-0.2,0.2-0.2,0.5,0,0.7l9.6,9.8C41.7,0,42,0,42.2-0.2
					s0.2-0.5,0-0.7l-9.5-9.7C32.6-10.7,32.5-10.8,32.3-10.8z"/>
				<path id="XMLID_14_" class="st2" d="M42-42.4c-0.1,0-0.3,0-0.4,0.1l-9.7,9.7c-0.2,0.2-0.2,0.5,0,0.7c0.2,0.2,0.5,0.2,0.7,0
					l9.8-9.6c0.2-0.2,0.2-0.5,0-0.7C42.3-42.3,42.2-42.4,42-42.4z"/>
				<path id="XMLID_13_" class="st2" d="M10.4-10.7c-0.1,0-0.3,0-0.4,0.1L0.2-1C0-0.8,0-0.5,0.2-0.3s0.5,0.2,0.7,0l9.8-9.6
					c0.2-0.2,0.2-0.5,0-0.7C10.6-10.6,10.5-10.7,10.4-10.7z"/>
			</g>
			<polygon id="XMLID_11_" class="st0" points="42.6,-42.6 0,-42.6 0,0 42.6,0 			"/>
		</g>
	</g>
</pattern>
<rect x="-149" y="150.5" class="st3" width="250" height="251"/>
<pattern  id="SVGID_2_" xlink:href="#SVGID_1_" patternTransform="matrix(1 0 0 -1 -741.0209 -16824.7598)">
</pattern>
<rect x="-149" y="150.5" class="st4" width="250" height="251"/>
</svg>
